<svg width="225" height="225" viewBox="0 0 225 225" fill="none" xmlns="http://www.w3.org/2000/svg">
<mask id="mask0_329_87" style="mask-type:alpha" maskUnits="userSpaceOnUse" x="0" y="0" width="225" height="225">
<rect width="225" height="225" fill="#D9D9D9"/>
</mask>
<g mask="url(#mask0_329_87)">
<path d="M197.663 115.946C191.741 113.253 186.951 111.37 182.34 109.17C179.672 107.824 176.688 106.297 178.83 101.339C188.633 104.565 198.387 106.845 207.43 111.559C211.273 113.49 211.827 116.056 210.313 120.203C209.779 121.735 208.928 123.088 208.212 124.35C204.05 131.249 199.888 138.148 195.5 145.002C194.112 147.302 192.364 149.647 189.289 147.986C186.531 146.504 186.382 143.667 187.362 141.053C188.521 138.123 190.087 135.508 191.563 132.757C192.636 130.864 193.845 128.88 194.104 126.357C193.294 126.899 192.485 127.441 191.676 127.983C182.638 134.034 177.947 134.042 168.807 128.022C161.567 123.08 155.584 117.099 151.353 109.359C150.307 107.514 149.261 105.669 148.305 103.959C143.76 96.625 139.292 96.0922 133.684 102.588C130.813 105.881 128.622 109.894 126.158 113.502C118.949 124.595 111.516 126.635 99.5788 120.53C90.6262 115.951 82.9288 109.748 76.7565 101.741C74.8955 99.2666 72.9436 96.6575 70.7687 94.5892C67.099 91.1723 64.3488 91.4473 61.9787 95.7756C59.3387 100.285 57.5577 105.197 55.5509 110.066C54.0782 113.401 53.1478 116.961 51.4493 120.253C47.9175 126.925 42.3897 131.214 34.4943 130.822C28.5838 130.472 22.5355 129.627 16.6663 128.466C12.8287 127.707 9.5251 125.415 8.73211 119.876C10.6729 120.143 12.2531 120.455 13.9682 120.678C20.1073 121.658 26.2463 122.638 32.4735 123.168C38.4749 123.653 42.2931 120.313 44.3879 114.995C46.1249 110.307 47.4104 105.53 49.2382 100.978C50.978 96.8757 52.6269 92.6387 55.1815 89.1659C60.5578 81.4541 69.1689 80.5834 76.1009 87.1027C79.2724 90.0701 82.086 93.6688 84.6738 97.2227C89.9844 104.24 96.8201 109.454 104.506 113.314C110.926 116.456 113.674 115.595 117.616 109.823C120.886 105.088 123.749 100.038 127.609 95.8872C130.031 93.0903 133.72 91.0119 137.367 89.7444C143.672 87.4813 149.23 89.6337 153.09 95.0774C155.088 98.0468 157.043 101.242 158.502 104.572C162.056 112.178 168.171 117.483 174.778 122.066C177.991 124.223 181.151 124.848 184.793 122.409C188.435 119.97 192.487 118.432 197.663 115.946Z" fill="black"/>
</g>
</svg>
