<svg width="219" height="211" viewBox="0 0 219 211" fill="none" xmlns="http://www.w3.org/2000/svg">
<mask id="mask0_329_88" style="mask-type:alpha" maskUnits="userSpaceOnUse" x="0" y="0" width="219" height="211">
<rect width="219" height="211" fill="#D9D9D9"/>
</mask>
<g mask="url(#mask0_329_88)">
<path d="M197.511 111.43C182.067 113.35 167.68 115.056 153.294 116.975C152.236 117.189 151.39 118.468 149.062 120.388C155.833 121.241 161.122 122.307 166.411 122.52C180.374 122.947 194.126 122.947 208.089 122.947C209.782 122.947 211.474 123.16 213.167 122.733C218.668 121.667 220.572 118.042 217.61 113.137C216.129 110.791 214.436 108.658 212.532 106.739C205.339 99.4877 197.934 92.4499 190.529 85.4122C189.26 84.1327 187.356 83.4928 184.817 82C184.394 92.8765 195.184 95.8622 197.511 104.393C195.607 103.966 193.914 103.753 192.433 103.326C135.311 87.5449 78.3995 89.251 21.6998 104.606C15.776 106.099 10.0637 108.445 4.35146 110.577C1.38954 111.644 -1.14925 113.99 0.543275 117.615C2.02424 121.241 4.98615 121.241 8.3712 119.748C46.2415 102.687 86.439 100.767 127.06 101.407C148.216 101.62 168.95 103.966 189.471 108.871C192.01 109.511 194.549 110.364 197.511 111.43Z" fill="black"/>
</g>
</svg>
