<svg width="466" height="64" viewBox="0 0 466 64" fill="none" xmlns="http://www.w3.org/2000/svg">
<path d="M200.204 38.5286C191.168 38.7894 182.084 38.8618 173.073 39.3544C134.781 41.4262 96.4893 43.6429 58.1976 45.7582C54.6322 45.961 51.0179 45.903 47.4281 45.8016C35.1201 45.4684 30.7243 41.9188 33.899 34.9935C34.4363 33.82 34.9247 32.6176 35.6329 30.9514C41.6404 30.5458 47.7944 30.2415 53.8996 29.6765C59.7117 29.1404 65.3774 28.0683 71.2139 27.6771C76.5865 27.3149 82.0811 27.7061 87.478 27.5033C91.7517 27.3439 96.0498 26.9962 100.201 26.4022C107.65 25.3591 115 24.0842 122.424 22.9251C123.523 22.7513 125.428 22.4615 125.745 22.7368C130.8 26.9528 133.242 23.2584 136.515 22.3022C175.93 20.7809 214.661 15.855 253.832 12.8705C222.94 13.6818 191.999 14.073 161.155 15.4204C115.659 17.4197 70.237 20.1144 24.7657 22.5049C20.6142 22.7223 16.4627 22.9396 12.2867 23.0121C4.88726 23.128 -0.143406 18.8685 0.00311819 13.1168C0.125222 7.9011 5.61985 8.69797 11.725 8.62553C28.4288 8.40821 45.1081 7.72727 61.7875 7.07531C77.4167 6.46682 93.046 5.68443 108.675 4.96004C133.829 3.801 158.933 2.36671 184.135 1.5409C198.885 1.0628 213.758 1.51189 228.557 1.59882C239.937 1.67126 251.195 -0.16873 262.794 2.03344C267.679 2.96067 273.979 0.874439 279.669 0.801999C303.528 0.526728 327.387 0.396382 351.246 0.396382C364.775 0.396382 378.28 0.932373 391.809 0.874421C411.541 0.787493 431.273 0.584711 450.98 0.019681C458.893 -0.212126 464.754 1.59886 465.877 5.71344C466.683 8.65449 463.337 12.0302 461.457 15.1451C461.164 15.6377 458.868 15.9129 457.501 15.9274C425.949 16.1158 394.3 15.4203 362.87 16.6373C326.923 18.0137 291.171 21.0706 255.346 23.4322C252.147 23.6495 249.021 24.2 245.871 24.5912C245.895 25.0548 245.944 25.5185 245.968 25.9966C259.791 25.9966 273.613 25.8082 287.435 26.0545C300.475 26.2863 313.516 27.1556 326.557 27.4309C336.203 27.6337 345.898 27.5613 355.52 27.1556C364.433 26.7934 370.148 29.691 370.856 35.689C371.369 40.0064 367.266 42.2666 358.841 42.6722C323.773 44.4108 288.705 46.1927 253.661 48.0327C250.535 48.1921 247.483 48.8151 244.332 49.7134C271 52.0459 298.253 52.553 322.967 59.5072L323.431 61.6369C319.743 62.4627 316.007 64.0564 312.393 63.9985C288.631 63.5493 264.919 62.7091 241.158 62.0426C214.27 61.2748 187.408 60.5938 160.52 59.7825C156.711 59.6666 152.974 59.0291 149.165 58.6959C137.394 57.6818 135.807 53.5382 139.494 45.7002C139.934 44.744 142.034 43.4546 143.524 43.3676C153.878 42.7736 164.599 41.3538 174.562 42.3825C184.453 43.3966 192.121 41.716 200.448 40.0209C200.351 39.5138 200.277 39.0213 200.18 38.5142L200.204 38.5286Z" fill="#ff6632"/>
</svg>
